<?xml version="1.0" standalone="no"?>
<!DOCTYPE svg PUBLIC "-//W3C//DTD SVG 20010904//EN"
 "http://www.w3.org/TR/2001/REC-SVG-20010904/DTD/svg10.dtd">
<svg version="1.0" xmlns="http://www.w3.org/2000/svg"
 width="400.000000pt" height="400.000000pt" viewBox="0 0 400.000000 400.000000"
 preserveAspectRatio="xMidYMid meet">
<metadata>
Created by potrace 1.11, written by Peter Selinger 2001-2013
</metadata>
<g transform="translate(0.000000,400.000000) scale(0.100000,-0.100000)"
fill="#000000" stroke="none">
<path d="M1984 2849 c-52 -11 -57 -14 -84 -37 -42 -36 -69 -100 -64 -152 6
-69 7 -70 17 -70 6 0 8 -3 4 -6 -9 -10 44 -64 81 -81 78 -37 185 -9 232 62 13
21 26 45 27 54 8 43 9 81 1 81 -4 0 -7 3 -7 8 4 24 -5 45 -36 82 -19 23 -35
39 -35 34 0 -4 -8 0 -17 8 -21 18 -77 26 -119 17z"/>
<path d="M1473 2780 c-77 -18 -134 -85 -139 -161 -1 -28 3 -65 8 -83 10 -29
79 -105 99 -107 5 -1 13 -2 18 -3 5 0 12 -4 15 -7 20 -19 141 16 176 51 44 44
65 143 41 188 -6 12 -9 22 -6 22 6 0 -9 20 -40 51 -44 45 -109 64 -172 49z"/>
<path d="M2437 2764 c-103 -54 -133 -185 -63 -276 22 -29 86 -77 86 -64 0 2
13 1 29 -4 92 -26 203 58 214 164 16 139 -142 246 -266 180z"/>
<path d="M933 2489 c-83 -41 -122 -136 -93 -226 22 -65 103 -125 163 -118 15
2 27 -2 27 -8 0 -8 3 -8 8 -2 4 6 16 11 27 13 31 5 89 48 108 82 10 16 20 46
23 67 2 20 6 39 8 41 3 2 -4 25 -15 50 -46 107 -157 150 -256 101z"/>
<path d="M2952 2478 c-60 -22 -99 -69 -110 -130 -9 -49 -9 -51 2 -95 8 -34 55
-89 94 -111 35 -19 101 -23 139 -7 18 8 33 12 33 10 0 -16 69 66 81 95 15 39
20 108 7 116 -4 3 -8 13 -8 22 0 9 -10 29 -23 43 -58 67 -135 87 -215 57z"/>
<path d="M1960 2407 c-19 -7 -46 -22 -58 -32 -28 -24 -64 -89 -61 -113 1 -9 0
-21 -1 -27 -1 -5 -3 -285 -4 -621 -1 -404 2 -610 9 -608 38 12 207 30 225 24
3 -1 19 -3 35 -5 48 -6 83 -13 93 -19 5 -3 9 262 9 639 0 362 -3 645 -8 645
-5 0 -9 8 -9 18 0 19 -51 72 -87 91 -34 17 -105 21 -143 8z"/>
<path d="M1442 2334 c-36 -16 -58 -35 -87 -79 -19 -29 -20 -49 -23 -643 -1
-343 1 -611 6 -608 12 7 69 18 117 21 22 2 41 4 43 5 3 2 61 2 65 0 1 -1 18
-3 37 -5 60 -6 75 -10 82 -20 4 -5 10 -6 14 -3 9 10 11 309 1 315 -4 2 -3 12
1 21 9 20 9 449 -1 458 -3 4 -3 14 1 23 9 18 7 342 -3 385 -14 67 -51 108
-117 132 -50 17 -93 17 -136 -2z"/>
<path d="M2462 2342 c-37 -12 -93 -62 -110 -101 -15 -32 -17 -106 -18 -634
l-1 -599 41 7 c93 15 245 14 287 0 23 -8 42 -15 43 -15 1 0 1 271 1 603 -1
555 -2 605 -19 638 -18 39 -59 80 -91 93 -29 11 -106 16 -133 8z"/>
<path d="M956 2045 c-46 -16 -82 -48 -107 -96 -17 -34 -18 -68 -19 -494 0
-269 3 -454 9 -451 5 3 26 8 46 12 21 3 46 7 55 9 21 4 133 8 140 5 3 -2 19
-4 35 -5 17 -2 30 -4 30 -5 0 -1 7 -3 15 -5 8 -1 21 -4 29 -6 12 -3 14 62 13
436 0 242 -2 451 -5 465 -16 102 -138 170 -241 135z"/>
<path d="M2983 2049 c-23 -4 -56 -18 -73 -30 -31 -24 -68 -85 -70 -116 0 -10
-1 -215 -3 -456 l-2 -438 45 6 c25 4 61 8 80 10 19 1 37 4 40 5 19 8 157 -8
180 -20 10 -6 21 -10 23 -10 2 0 3 206 3 458 -1 432 -2 459 -21 497 -38 78
-110 111 -202 94z"/>
<path d="M508 1994 c-4 -3 -38 -11 -60 -13 -3 -1 -20 -13 -38 -27 -99 -84 -83
-244 30 -305 86 -45 198 -15 246 67 67 115 -6 261 -139 278 -20 2 -37 3 -39 0z"/>
<path d="M3445 1984 c-22 -8 -52 -26 -67 -41 -30 -29 -64 -105 -54 -122 4 -5
2 -13 -4 -16 -7 -4 -7 -11 -2 -18 5 -7 12 -24 16 -39 15 -64 93 -120 169 -119
52 0 64 3 103 26 111 66 111 245 0 310 -52 30 -110 37 -161 19z"/>
<path d="M518 1554 c-2 -1 -15 -4 -28 -6 -40 -5 -97 -46 -122 -86 -22 -35 -23
-47 -25 -248 l-1 -212 31 9 c18 4 56 10 86 13 29 3 56 8 59 11 3 2 11 0 19 -6
10 -9 13 -8 13 1 0 8 6 9 18 5 9 -4 24 -7 32 -7 8 0 36 -6 62 -13 35 -10 47
-11 50 -2 3 7 4 100 3 207 -1 156 -5 201 -17 225 -20 38 -58 79 -83 89 -24 10
-93 24 -97 20z"/>
<path d="M3468 1550 c-42 -7 -108 -49 -108 -67 0 -7 -4 -13 -9 -13 -11 0 -32
-56 -24 -64 4 -3 2 -6 -3 -6 -5 0 -8 -77 -7 -183 2 -229 1 -217 16 -212 42 15
205 33 227 25 3 -1 19 -3 35 -5 17 -2 45 -8 63 -13 l32 -11 0 202 c0 176 -3
207 -19 243 -35 76 -117 118 -203 104z"/>
</g>
</svg>
